<?xml version="1.0" encoding="UTF-8" standalone="no"?>
<svg
   xmlns:dc="http://purl.org/dc/elements/1.1/"
   xmlns:cc="http://creativecommons.org/ns#"
   xmlns:rdf="http://www.w3.org/1999/02/22-rdf-syntax-ns#"
   xmlns:svg="http://www.w3.org/2000/svg"
   xmlns="http://www.w3.org/2000/svg"
   xmlns:sodipodi="http://sodipodi.sourceforge.net/DTD/sodipodi-0.dtd"
   xmlns:inkscape="http://www.inkscape.org/namespaces/inkscape"
   width="920"
   height="537.35999"
   viewBox="0 0 640 409"
   version="1.0"
   id="svg2"
   sodipodi:version="0.32"
   inkscape:version="0.91 r13725"
   sodipodi:docname="RPM_Logo.svg"
   inkscape:output_extension="org.inkscape.output.svg.inkscape">
  <metadata
     id="metadata43">
    <rdf:RDF>
      <cc:Work
         rdf:about="">
        <dc:format>image/svg+xml</dc:format>
        <dc:type
           rdf:resource="http://purl.org/dc/dcmitype/StillImage" />
      </cc:Work>
    </rdf:RDF>
  </metadata>
  <sodipodi:namedview
     inkscape:window-height="1008"
     inkscape:window-width="1920"
     inkscape:pageshadow="2"
     inkscape:pageopacity="0.0"
     guidetolerance="10.0"
     gridtolerance="10.0"
     objecttolerance="10.0"
     borderopacity="1.0"
     bordercolor="#666666"
     pagecolor="#ffffff"
     id="base"
     width="920px"
     height="537.36px"
     inkscape:zoom="0.58998608"
     inkscape:cx="418.61619"
     inkscape:cy="156.80352"
     inkscape:window-x="0"
     inkscape:window-y="49"
     inkscape:current-layer="svg2"
     showgrid="false"
     inkscape:window-maximized="1" />
  <defs
     id="defs4">
    <clipPath
       id="clip0">
      <rect
         width="640"
         height="409"
         id="rect7"
         x="0"
         y="0" />
    </clipPath>
  </defs>
  <g
     id="g5448">
    <path
       style="fill:#000000;fill-rule:nonzero;stroke:none"
       d="m 231.24871,13.074828 c 13.9647,-2.145714 28.04932,-3.7143076 42.16715,-4.4576601 2.50807,-0.5975609 5.10233,-0.4754423 7.66462,-0.5670221 20.03161,-0.6389616 40.09083,-0.6100499 60.114,0.2920262 36.13984,2.556064 72.09666,8.559881 106.95954,18.568048 l -0.14762,0.19577 c -5.11111,6.912417 -10.23719,13.813955 -15.24925,20.797413 -1.50177,0.277079 -2.81633,-0.67277 -4.15389,-1.151144 C 402.15299,35.837642 373.99723,29.50189 345.65841,26.073356 299.04548,21.299976 251.32409,25.13525 206.6068,39.478656 173.68347,50.127022 141.88954,66.546594 117.33862,91.307584 99.940046,109.10011 86.581823,132.11715 84.768653,157.33636 c -1.687182,12.0186 1.190443,24.01642 3.735937,35.67942 l -110.416603,19.4647 c -0.26686,-19.48213 4.817187,-38.75716 12.9080663,-56.38203 C 7.0889076,121.78138 34.995235,94.363019 66.089674,73.370091 87.115089,59.253246 109.8426,47.736528 133.44845,38.604474 164.89685,26.309475 197.84692,17.908911 231.24871,13.074828 Z"
       id="path16"
       sodipodi:nodetypes="cccccccccccccccccc"
       inkscape:connector-curvature="0" />
    <path
       style="fill:#d72123;fill-rule:nonzero;stroke:none"
       d="m 432.75715,47.903403 c 5.01206,-6.983458 10.13814,-13.884996 15.24925,-20.797413 46.80969,13.7098 92.01318,35.358686 128.93772,67.616911 15.09828,13.519939 28.75394,28.815029 39.24184,46.216939 12.41965,20.47919 20.2898,43.93195 21.13188,67.95911 -36.71332,-6.41672 -73.41642,-12.88818 -110.12475,-19.32675 4.51794,-14.36945 4.55651,-30.01449 1.46274,-44.67823 C 522.92208,119.55122 506.67492,97.792388 487.07711,81.275148 470.73988,67.528438 452.10162,56.511479 432.35456,48.448869 l 0.40259,-0.545466 z"
       id="path20"
       inkscape:connector-curvature="0" />
    <path
       style="fill:#000000;fill-rule:nonzero;stroke:none"
       d="m 297.41181,149.12508 c 2.16103,-3.5191 5.96608,-6.32608 10.29398,-5.80508 4.89185,0.12513 8.6615,4.16754 9.6749,8.74236 l 345.12714,61.39291 -1.1523,5.78199 -345.05216,-60.50782 c -2.75262,4.78919 -9.13793,7.26259 -14.15442,4.4345 -3.47786,-1.52032 -4.66434,-5.24185 -6.23396,-8.36425 l -21.24592,-3.40419 0.97392,-5.97658 21.76882,3.70616 z"
       id="path24"
       sodipodi:nodetypes="ccccccccccc"
       inkscape:connector-curvature="0" />
    <path
       style="fill:#000000;fill-rule:nonzero;stroke:none"
       d="m -22.507827,229.83354 c 20.2826547,-0.13619 40.566919,-0.0251 60.850388,-0.0566 0.02008,0.75155 0.06026,2.25465 0.08034,3.0062 14.737927,-3.20945 29.885118,-4.57437 44.958756,-3.74231 10.975803,1.00482 21.053141,5.70851 30.868811,10.37777 -11.06506,6.84335 -22.324552,13.43394 -33.12261,20.6745 -12.032679,-9.29211 -28.386548,-9.30034 -42.418946,-5.23476 -0.175128,1.50142 -0.339799,3.00801 -0.354747,4.52818 0.0071,34.91756 0.01685,69.83575 -0.0041,104.754 -20.275318,-0.007 -40.5503801,0.0187 -60.825544,-0.0128 -0.04309,-44.76492 0.02139,-89.52962 -0.03233,-134.29415 z"
       id="path28"
       inkscape:connector-curvature="0" />
    <path
       id="path32"
       transform="matrix(0.7611285,0,0,0.7611285,-30.119115,0)"
       d="M 252.55273 301.875 C 240.81995 301.86505 229.08725 301.8738 217.35547 301.97266 L 217.3457 527.35938 L 297.38281 516.38086 L 297.44727 480.00195 C 334.25868 478.44804 370.42616 469.18934 402.96875 451.77734 C 420.72111 441.78576 438.1626 428.41797 446.30664 409.13672 C 453.24443 393.06496 450.15424 374.20612 441.31641 359.51758 C 429.67908 340.60866 410.2624 328.04831 390.18945 319.54883 C 357.8699 306.17312 322.52509 301.69125 287.75 301.88867 C 276.01727 301.91304 264.28552 301.88495 252.55273 301.875 z M 297.50195 321.36523 L 297.50391 321.36523 C 318.00084 323.42205 336.52856 335.00427 350.5293 349.66016 C 362.6033 362.35879 371.13806 380.07703 368.18945 397.92383 C 364.96646 415.80292 352.5264 430.32704 338.53711 441.13867 C 326.38693 450.05814 312.64665 457.75908 297.5 459.77734 C 297.44771 413.63992 297.43994 367.50203 297.50195 321.36523 z "
       style="fill:#000000;fill-rule:nonzero;stroke:none" />
    <path
       style="fill:#000000;fill-rule:nonzero;stroke:none"
       d="m 351.87058,229.86425 c 69.69969,-0.21288 139.40376,-0.026 209.10552,-0.0936 20.39169,0.0844 41.12262,0.21346 60.95901,5.48864 5.70893,1.88049 13.32257,4.1167 14.82419,10.75273 0.14886,39.37366 0.0555,78.75643 0.0454,118.13382 -20.28681,-0.004 -40.5726,-0.0125 -60.85782,0.004 -0.004,-39.07055 -0.084,-78.14247 0.0396,-117.21163 -3.68531,-3.19739 -8.93912,-3.06098 -13.51483,-3.61936 -12.5114,-0.3257 -25.03284,-0.0933 -37.54633,-0.12856 0.002,40.31903 0.0451,80.63838 -0.0212,120.95765 -20.31552,-0.019 -40.63014,0.006 -60.94438,-0.0124 -0.0602,-32.2959 -0.009,-64.59163 -0.0256,-96.88713 -0.16254,-7.05713 0.35368,-14.14074 -0.30739,-21.17502 -5.71567,-2.40238 -11.97694,-2.87306 -18.10554,-2.90244 -10.88162,-0.0175 -21.762,0.008 -32.64154,-0.0111 -0.0533,40.33269 0.0656,80.66623 -0.0596,120.99879 -19.1288,-0.0244 -38.25726,-0.0377 -57.38482,0.008 l -3.68452,-0.0146 c 0.31471,-44.50866 0.0753,-89.77519 0.11995,-134.28794 z"
       id="path36"
       sodipodi:nodetypes="ccccccccccccccccccc"
       inkscape:connector-curvature="0" />
  </g>
</svg>
